<?xml version="1.0" encoding="utf-8"?>
<!DOCTYPE svg PUBLIC "-//W3C//DTD SVG 20010904//EN" "http://www.w3.org/TR/2001/REC-SVG-20010904/DTD/svg10.dtd">
<svg xmlns="http://www.w3.org/2000/svg" xml:space="preserve" xmlns:xlink="http://www.w3.org/1999/xlink" width="928" height="928" viewBox="0 0 928 928">
<defs>
<mask id="qrmask"><g fill="#ffffff">
<g transform="translate(320,64) scale(5.3333333333333)"><rect width="6" height="6"/></g>
<g transform="translate(352,64) scale(5.3333333333333)"><rect width="6" height="6"/></g>
<g transform="translate(384,64) scale(5.3333333333333)"><rect width="6" height="6"/></g>
<g transform="translate(448,64) scale(5.3333333333333)"><rect width="6" height="6"/></g>
<g transform="translate(512,64) scale(5.3333333333333)"><rect width="6" height="6"/></g>
<g transform="translate(544,64) scale(5.3333333333333)"><rect width="6" height="6"/></g>
<g transform="translate(576,64) scale(5.3333333333333)"><rect width="6" height="6"/></g>
<g transform="translate(320,96) scale(5.3333333333333)"><rect width="6" height="6"/></g>
<g transform="translate(352,96) scale(5.3333333333333)"><rect width="6" height="6"/></g>
<g transform="translate(384,96) scale(5.3333333333333)"><rect width="6" height="6"/></g>
<g transform="translate(448,96) scale(5.3333333333333)"><rect width="6" height="6"/></g>
<g transform="translate(480,96) scale(5.3333333333333)"><rect width="6" height="6"/></g>
<g transform="translate(576,96) scale(5.3333333333333)"><rect width="6" height="6"/></g>
<g transform="translate(320,128) scale(5.3333333333333)"><rect width="6" height="6"/></g>
<g transform="translate(352,128) scale(5.3333333333333)"><rect width="6" height="6"/></g>
<g transform="translate(448,128) scale(5.3333333333333)"><rect width="6" height="6"/></g>
<g transform="translate(576,128) scale(5.3333333333333)"><rect width="6" height="6"/></g>
<g transform="translate(416,160) scale(5.3333333333333)"><rect width="6" height="6"/></g>
<g transform="translate(480,160) scale(5.3333333333333)"><rect width="6" height="6"/></g>
<g transform="translate(512,160) scale(5.3333333333333)"><rect width="6" height="6"/></g>
<g transform="translate(544,160) scale(5.3333333333333)"><rect width="6" height="6"/></g>
<g transform="translate(576,160) scale(5.3333333333333)"><rect width="6" height="6"/></g>
<g transform="translate(352,192) scale(5.3333333333333)"><rect width="6" height="6"/></g>
<g transform="translate(416,192) scale(5.3333333333333)"><rect width="6" height="6"/></g>
<g transform="translate(480,192) scale(5.3333333333333)"><rect width="6" height="6"/></g>
<g transform="translate(512,192) scale(5.3333333333333)"><rect width="6" height="6"/></g>
<g transform="translate(320,224) scale(5.3333333333333)"><rect width="6" height="6"/></g>
<g transform="translate(384,224) scale(5.3333333333333)"><rect width="6" height="6"/></g>
<g transform="translate(512,224) scale(5.3333333333333)"><rect width="6" height="6"/></g>
<g transform="translate(544,224) scale(5.3333333333333)"><rect width="6" height="6"/></g>
<g transform="translate(320,256) scale(5.3333333333333)"><rect width="6" height="6"/></g>
<g transform="translate(384,256) scale(5.3333333333333)"><rect width="6" height="6"/></g>
<g transform="translate(448,256) scale(5.3333333333333)"><rect width="6" height="6"/></g>
<g transform="translate(512,256) scale(5.3333333333333)"><rect width="6" height="6"/></g>
<g transform="translate(576,256) scale(5.3333333333333)"><rect width="6" height="6"/></g>
<g transform="translate(320,288) scale(5.3333333333333)"><rect width="6" height="6"/></g>
<g transform="translate(352,288) scale(5.3333333333333)"><rect width="6" height="6"/></g>
<g transform="translate(512,288) scale(5.3333333333333)"><rect width="6" height="6"/></g>
<g transform="translate(544,288) scale(5.3333333333333)"><rect width="6" height="6"/></g>
<g transform="translate(576,288) scale(5.3333333333333)"><rect width="6" height="6"/></g>
<g transform="translate(128,320) scale(5.3333333333333)"><rect width="6" height="6"/></g>
<g transform="translate(160,320) scale(5.3333333333333)"><rect width="6" height="6"/></g>
<g transform="translate(192,320) scale(5.3333333333333)"><rect width="6" height="6"/></g>
<g transform="translate(256,320) scale(5.3333333333333)"><rect width="6" height="6"/></g>
<g transform="translate(320,320) scale(5.3333333333333)"><rect width="6" height="6"/></g>
<g transform="translate(416,320) scale(5.3333333333333)"><rect width="6" height="6"/></g>
<g transform="translate(480,320) scale(5.3333333333333)"><rect width="6" height="6"/></g>
<g transform="translate(608,320) scale(5.3333333333333)"><rect width="6" height="6"/></g>
<g transform="translate(640,320) scale(5.3333333333333)"><rect width="6" height="6"/></g>
<g transform="translate(672,320) scale(5.3333333333333)"><rect width="6" height="6"/></g>
<g transform="translate(768,320) scale(5.3333333333333)"><rect width="6" height="6"/></g>
<g transform="translate(800,320) scale(5.3333333333333)"><rect width="6" height="6"/></g>
<g transform="translate(832,320) scale(5.3333333333333)"><rect width="6" height="6"/></g>
<g transform="translate(64,352) scale(5.3333333333333)"><rect width="6" height="6"/></g>
<g transform="translate(96,352) scale(5.3333333333333)"><rect width="6" height="6"/></g>
<g transform="translate(160,352) scale(5.3333333333333)"><rect width="6" height="6"/></g>
<g transform="translate(224,352) scale(5.3333333333333)"><rect width="6" height="6"/></g>
<g transform="translate(288,352) scale(5.3333333333333)"><rect width="6" height="6"/></g>
<g transform="translate(448,352) scale(5.3333333333333)"><rect width="6" height="6"/></g>
<g transform="translate(512,352) scale(5.3333333333333)"><rect width="6" height="6"/></g>
<g transform="translate(576,352) scale(5.3333333333333)"><rect width="6" height="6"/></g>
<g transform="translate(640,352) scale(5.3333333333333)"><rect width="6" height="6"/></g>
<g transform="translate(672,352) scale(5.3333333333333)"><rect width="6" height="6"/></g>
<g transform="translate(704,352) scale(5.3333333333333)"><rect width="6" height="6"/></g>
<g transform="translate(736,352) scale(5.3333333333333)"><rect width="6" height="6"/></g>
<g transform="translate(800,352) scale(5.3333333333333)"><rect width="6" height="6"/></g>
<g transform="translate(832,352) scale(5.3333333333333)"><rect width="6" height="6"/></g>
<g transform="translate(96,384) scale(5.3333333333333)"><rect width="6" height="6"/></g>
<g transform="translate(224,384) scale(5.3333333333333)"><rect width="6" height="6"/></g>
<g transform="translate(256,384) scale(5.3333333333333)"><rect width="6" height="6"/></g>
<g transform="translate(288,384) scale(5.3333333333333)"><rect width="6" height="6"/></g>
<g transform="translate(352,384) scale(5.3333333333333)"><rect width="6" height="6"/></g>
<g transform="translate(416,384) scale(5.3333333333333)"><rect width="6" height="6"/></g>
<g transform="translate(448,384) scale(5.3333333333333)"><rect width="6" height="6"/></g>
<g transform="translate(544,384) scale(5.3333333333333)"><rect width="6" height="6"/></g>
<g transform="translate(640,384) scale(5.3333333333333)"><rect width="6" height="6"/></g>
<g transform="translate(704,384) scale(5.3333333333333)"><rect width="6" height="6"/></g>
<g transform="translate(736,384) scale(5.3333333333333)"><rect width="6" height="6"/></g>
<g transform="translate(768,384) scale(5.3333333333333)"><rect width="6" height="6"/></g>
<g transform="translate(832,384) scale(5.3333333333333)"><rect width="6" height="6"/></g>
<g transform="translate(128,416) scale(5.3333333333333)"><rect width="6" height="6"/></g>
<g transform="translate(320,416) scale(5.3333333333333)"><rect width="6" height="6"/></g>
<g transform="translate(352,416) scale(5.3333333333333)"><rect width="6" height="6"/></g>
<g transform="translate(448,416) scale(5.3333333333333)"><rect width="6" height="6"/></g>
<g transform="translate(480,416) scale(5.3333333333333)"><rect width="6" height="6"/></g>
<g transform="translate(512,416) scale(5.3333333333333)"><rect width="6" height="6"/></g>
<g transform="translate(544,416) scale(5.3333333333333)"><rect width="6" height="6"/></g>
<g transform="translate(608,416) scale(5.3333333333333)"><rect width="6" height="6"/></g>
<g transform="translate(640,416) scale(5.3333333333333)"><rect width="6" height="6"/></g>
<g transform="translate(672,416) scale(5.3333333333333)"><rect width="6" height="6"/></g>
<g transform="translate(704,416) scale(5.3333333333333)"><rect width="6" height="6"/></g>
<g transform="translate(736,416) scale(5.3333333333333)"><rect width="6" height="6"/></g>
<g transform="translate(800,416) scale(5.3333333333333)"><rect width="6" height="6"/></g>
<g transform="translate(832,416) scale(5.3333333333333)"><rect width="6" height="6"/></g>
<g transform="translate(96,448) scale(5.3333333333333)"><rect width="6" height="6"/></g>
<g transform="translate(160,448) scale(5.3333333333333)"><rect width="6" height="6"/></g>
<g transform="translate(256,448) scale(5.3333333333333)"><rect width="6" height="6"/></g>
<g transform="translate(288,448) scale(5.3333333333333)"><rect width="6" height="6"/></g>
<g transform="translate(352,448) scale(5.3333333333333)"><rect width="6" height="6"/></g>
<g transform="translate(384,448) scale(5.3333333333333)"><rect width="6" height="6"/></g>
<g transform="translate(416,448) scale(5.3333333333333)"><rect width="6" height="6"/></g>
<g transform="translate(448,448) scale(5.3333333333333)"><rect width="6" height="6"/></g>
<g transform="translate(512,448) scale(5.3333333333333)"><rect width="6" height="6"/></g>
<g transform="translate(544,448) scale(5.3333333333333)"><rect width="6" height="6"/></g>
<g transform="translate(576,448) scale(5.3333333333333)"><rect width="6" height="6"/></g>
<g transform="translate(640,448) scale(5.3333333333333)"><rect width="6" height="6"/></g>
<g transform="translate(768,448) scale(5.3333333333333)"><rect width="6" height="6"/></g>
<g transform="translate(64,480) scale(5.3333333333333)"><rect width="6" height="6"/></g>
<g transform="translate(160,480) scale(5.3333333333333)"><rect width="6" height="6"/></g>
<g transform="translate(192,480) scale(5.3333333333333)"><rect width="6" height="6"/></g>
<g transform="translate(320,480) scale(5.3333333333333)"><rect width="6" height="6"/></g>
<g transform="translate(352,480) scale(5.3333333333333)"><rect width="6" height="6"/></g>
<g transform="translate(448,480) scale(5.3333333333333)"><rect width="6" height="6"/></g>
<g transform="translate(480,480) scale(5.3333333333333)"><rect width="6" height="6"/></g>
<g transform="translate(544,480) scale(5.3333333333333)"><rect width="6" height="6"/></g>
<g transform="translate(608,480) scale(5.3333333333333)"><rect width="6" height="6"/></g>
<g transform="translate(640,480) scale(5.3333333333333)"><rect width="6" height="6"/></g>
<g transform="translate(800,480) scale(5.3333333333333)"><rect width="6" height="6"/></g>
<g transform="translate(64,512) scale(5.3333333333333)"><rect width="6" height="6"/></g>
<g transform="translate(160,512) scale(5.3333333333333)"><rect width="6" height="6"/></g>
<g transform="translate(192,512) scale(5.3333333333333)"><rect width="6" height="6"/></g>
<g transform="translate(224,512) scale(5.3333333333333)"><rect width="6" height="6"/></g>
<g transform="translate(256,512) scale(5.3333333333333)"><rect width="6" height="6"/></g>
<g transform="translate(288,512) scale(5.3333333333333)"><rect width="6" height="6"/></g>
<g transform="translate(320,512) scale(5.3333333333333)"><rect width="6" height="6"/></g>
<g transform="translate(352,512) scale(5.3333333333333)"><rect width="6" height="6"/></g>
<g transform="translate(384,512) scale(5.3333333333333)"><rect width="6" height="6"/></g>
<g transform="translate(448,512) scale(5.3333333333333)"><rect width="6" height="6"/></g>
<g transform="translate(480,512) scale(5.3333333333333)"><rect width="6" height="6"/></g>
<g transform="translate(544,512) scale(5.3333333333333)"><rect width="6" height="6"/></g>
<g transform="translate(576,512) scale(5.3333333333333)"><rect width="6" height="6"/></g>
<g transform="translate(608,512) scale(5.3333333333333)"><rect width="6" height="6"/></g>
<g transform="translate(736,512) scale(5.3333333333333)"><rect width="6" height="6"/></g>
<g transform="translate(768,512) scale(5.3333333333333)"><rect width="6" height="6"/></g>
<g transform="translate(64,544) scale(5.3333333333333)"><rect width="6" height="6"/></g>
<g transform="translate(128,544) scale(5.3333333333333)"><rect width="6" height="6"/></g>
<g transform="translate(160,544) scale(5.3333333333333)"><rect width="6" height="6"/></g>
<g transform="translate(192,544) scale(5.3333333333333)"><rect width="6" height="6"/></g>
<g transform="translate(224,544) scale(5.3333333333333)"><rect width="6" height="6"/></g>
<g transform="translate(320,544) scale(5.3333333333333)"><rect width="6" height="6"/></g>
<g transform="translate(352,544) scale(5.3333333333333)"><rect width="6" height="6"/></g>
<g transform="translate(384,544) scale(5.3333333333333)"><rect width="6" height="6"/></g>
<g transform="translate(416,544) scale(5.3333333333333)"><rect width="6" height="6"/></g>
<g transform="translate(448,544) scale(5.3333333333333)"><rect width="6" height="6"/></g>
<g transform="translate(512,544) scale(5.3333333333333)"><rect width="6" height="6"/></g>
<g transform="translate(544,544) scale(5.3333333333333)"><rect width="6" height="6"/></g>
<g transform="translate(736,544) scale(5.3333333333333)"><rect width="6" height="6"/></g>
<g transform="translate(800,544) scale(5.3333333333333)"><rect width="6" height="6"/></g>
<g transform="translate(832,544) scale(5.3333333333333)"><rect width="6" height="6"/></g>
<g transform="translate(64,576) scale(5.3333333333333)"><rect width="6" height="6"/></g>
<g transform="translate(128,576) scale(5.3333333333333)"><rect width="6" height="6"/></g>
<g transform="translate(160,576) scale(5.3333333333333)"><rect width="6" height="6"/></g>
<g transform="translate(256,576) scale(5.3333333333333)"><rect width="6" height="6"/></g>
<g transform="translate(320,576) scale(5.3333333333333)"><rect width="6" height="6"/></g>
<g transform="translate(384,576) scale(5.3333333333333)"><rect width="6" height="6"/></g>
<g transform="translate(544,576) scale(5.3333333333333)"><rect width="6" height="6"/></g>
<g transform="translate(576,576) scale(5.3333333333333)"><rect width="6" height="6"/></g>
<g transform="translate(608,576) scale(5.3333333333333)"><rect width="6" height="6"/></g>
<g transform="translate(640,576) scale(5.3333333333333)"><rect width="6" height="6"/></g>
<g transform="translate(672,576) scale(5.3333333333333)"><rect width="6" height="6"/></g>
<g transform="translate(704,576) scale(5.3333333333333)"><rect width="6" height="6"/></g>
<g transform="translate(800,576) scale(5.3333333333333)"><rect width="6" height="6"/></g>
<g transform="translate(320,608) scale(5.3333333333333)"><rect width="6" height="6"/></g>
<g transform="translate(352,608) scale(5.3333333333333)"><rect width="6" height="6"/></g>
<g transform="translate(416,608) scale(5.3333333333333)"><rect width="6" height="6"/></g>
<g transform="translate(544,608) scale(5.3333333333333)"><rect width="6" height="6"/></g>
<g transform="translate(576,608) scale(5.3333333333333)"><rect width="6" height="6"/></g>
<g transform="translate(704,608) scale(5.3333333333333)"><rect width="6" height="6"/></g>
<g transform="translate(800,608) scale(5.3333333333333)"><rect width="6" height="6"/></g>
<g transform="translate(832,608) scale(5.3333333333333)"><rect width="6" height="6"/></g>
<g transform="translate(416,640) scale(5.3333333333333)"><rect width="6" height="6"/></g>
<g transform="translate(480,640) scale(5.3333333333333)"><rect width="6" height="6"/></g>
<g transform="translate(544,640) scale(5.3333333333333)"><rect width="6" height="6"/></g>
<g transform="translate(576,640) scale(5.3333333333333)"><rect width="6" height="6"/></g>
<g transform="translate(640,640) scale(5.3333333333333)"><rect width="6" height="6"/></g>
<g transform="translate(704,640) scale(5.3333333333333)"><rect width="6" height="6"/></g>
<g transform="translate(352,672) scale(5.3333333333333)"><rect width="6" height="6"/></g>
<g transform="translate(416,672) scale(5.3333333333333)"><rect width="6" height="6"/></g>
<g transform="translate(576,672) scale(5.3333333333333)"><rect width="6" height="6"/></g>
<g transform="translate(704,672) scale(5.3333333333333)"><rect width="6" height="6"/></g>
<g transform="translate(768,672) scale(5.3333333333333)"><rect width="6" height="6"/></g>
<g transform="translate(800,672) scale(5.3333333333333)"><rect width="6" height="6"/></g>
<g transform="translate(832,672) scale(5.3333333333333)"><rect width="6" height="6"/></g>
<g transform="translate(320,704) scale(5.3333333333333)"><rect width="6" height="6"/></g>
<g transform="translate(352,704) scale(5.3333333333333)"><rect width="6" height="6"/></g>
<g transform="translate(384,704) scale(5.3333333333333)"><rect width="6" height="6"/></g>
<g transform="translate(448,704) scale(5.3333333333333)"><rect width="6" height="6"/></g>
<g transform="translate(480,704) scale(5.3333333333333)"><rect width="6" height="6"/></g>
<g transform="translate(576,704) scale(5.3333333333333)"><rect width="6" height="6"/></g>
<g transform="translate(608,704) scale(5.3333333333333)"><rect width="6" height="6"/></g>
<g transform="translate(640,704) scale(5.3333333333333)"><rect width="6" height="6"/></g>
<g transform="translate(672,704) scale(5.3333333333333)"><rect width="6" height="6"/></g>
<g transform="translate(704,704) scale(5.3333333333333)"><rect width="6" height="6"/></g>
<g transform="translate(800,704) scale(5.3333333333333)"><rect width="6" height="6"/></g>
<g transform="translate(832,704) scale(5.3333333333333)"><rect width="6" height="6"/></g>
<g transform="translate(320,736) scale(5.3333333333333)"><rect width="6" height="6"/></g>
<g transform="translate(352,736) scale(5.3333333333333)"><rect width="6" height="6"/></g>
<g transform="translate(384,736) scale(5.3333333333333)"><rect width="6" height="6"/></g>
<g transform="translate(416,736) scale(5.3333333333333)"><rect width="6" height="6"/></g>
<g transform="translate(448,736) scale(5.3333333333333)"><rect width="6" height="6"/></g>
<g transform="translate(512,736) scale(5.3333333333333)"><rect width="6" height="6"/></g>
<g transform="translate(544,736) scale(5.3333333333333)"><rect width="6" height="6"/></g>
<g transform="translate(576,736) scale(5.3333333333333)"><rect width="6" height="6"/></g>
<g transform="translate(608,736) scale(5.3333333333333)"><rect width="6" height="6"/></g>
<g transform="translate(672,736) scale(5.3333333333333)"><rect width="6" height="6"/></g>
<g transform="translate(768,736) scale(5.3333333333333)"><rect width="6" height="6"/></g>
<g transform="translate(832,736) scale(5.3333333333333)"><rect width="6" height="6"/></g>
<g transform="translate(320,768) scale(5.3333333333333)"><rect width="6" height="6"/></g>
<g transform="translate(352,768) scale(5.3333333333333)"><rect width="6" height="6"/></g>
<g transform="translate(384,768) scale(5.3333333333333)"><rect width="6" height="6"/></g>
<g transform="translate(448,768) scale(5.3333333333333)"><rect width="6" height="6"/></g>
<g transform="translate(512,768) scale(5.3333333333333)"><rect width="6" height="6"/></g>
<g transform="translate(576,768) scale(5.3333333333333)"><rect width="6" height="6"/></g>
<g transform="translate(640,768) scale(5.3333333333333)"><rect width="6" height="6"/></g>
<g transform="translate(704,768) scale(5.3333333333333)"><rect width="6" height="6"/></g>
<g transform="translate(736,768) scale(5.3333333333333)"><rect width="6" height="6"/></g>
<g transform="translate(832,768) scale(5.3333333333333)"><rect width="6" height="6"/></g>
<g transform="translate(352,800) scale(5.3333333333333)"><rect width="6" height="6"/></g>
<g transform="translate(480,800) scale(5.3333333333333)"><rect width="6" height="6"/></g>
<g transform="translate(640,800) scale(5.3333333333333)"><rect width="6" height="6"/></g>
<g transform="translate(672,800) scale(5.3333333333333)"><rect width="6" height="6"/></g>
<g transform="translate(544,832) scale(5.3333333333333)"><rect width="6" height="6"/></g>
<g transform="translate(608,832) scale(5.3333333333333)"><rect width="6" height="6"/></g>
<g transform="translate(640,832) scale(5.3333333333333)"><rect width="6" height="6"/></g>
<g transform="translate(672,832) scale(5.3333333333333)"><rect width="6" height="6"/></g>
<g transform="translate(736,832) scale(5.3333333333333)"><rect width="6" height="6"/></g>
<g transform="translate(832,832) scale(5.3333333333333)"><rect width="6" height="6"/></g>
</g></mask></defs>
<rect width="928" height="928" fill="#ffffff" x="0" y="0" />
<rect x="0" y="0" width="928" height="928" mask="url(#qrmask)" fill="#000000" />
<g transform="translate(64,64)"  fill="#000000"><g transform="scale(16)"><path d="M0,0v14h14V0H0z M12,12H2V2h10V12z"/></g></g>
<g transform="translate(640,64)"  fill="#000000"><g transform="scale(16)"><path d="M0,0v14h14V0H0z M12,12H2V2h10V12z"/></g></g>
<g transform="translate(64,640)"  fill="#000000"><g transform="scale(16)"><path d="M0,0v14h14V0H0z M12,12H2V2h10V12z"/></g></g>
<g transform="translate(128,128)"  fill="#000000"><g transform="scale(16)"><rect width="6" height="6"/></g></g>
<g transform="translate(704,128)"  fill="#000000"><g transform="scale(16)"><rect width="6" height="6"/></g></g>
<g transform="translate(128,704)"  fill="#000000"><g transform="scale(16)"><rect width="6" height="6"/></g></g>
</svg>